# xmcd
#
# Track frame offsets: 
#        150
#        27645
#        53900
#        70054
#        83278
#        108709
#        120993
#        146654
#
# Disc length: 2105 seconds
#
# Revision: 1
# Processed by: cddbd v1.5.2PL0 Copyright (c) Steve Scherf et al.
# Submitted via: ExactAudioCopy v1.1
#
DISCID=67083708
DTITLE=Rudy Ray Moore - The Player - The Hustler
DYEAR=1975
DGENRE=Comedy
TTITLE0=The Player
TTITLE1=Thanks For Good Pussy - Right Mind Now - Them Flies Man - Pist
TTITLE1=ol Packing Pete
TTITLE2=Lady Reed
TTITLE3=Shake Your Ass, Twirl And Strike
TTITLE4=He's Using My Hand - Back Up And Get This Load - Definition Of
TTITLE4=Piss
TTITLE5=Live The Life I Love (Hustler's Lament)
TTITLE6=Sex Is A Pain In The Rear - Farting Post
TTITLE7=You're In The Army Now (Sound Off)
EXTD=
EXTT0=
EXTT1=
EXTT2=
EXTT3=
EXTT4=
EXTT5=
EXTT6=
EXTT7=
PLAYORDER=
